

Format                           : AVI
Format/Info                      : Audio Video Interleave
File size                        : 1.11 GiB
Duration                         : 1h 26mn
Overall bit rate                 : 1 843 Kbps
Writing library                  : VirtualDub build 32842/release

Video
ID                               : 0
Format                           : MPEG-4 Visual
Format profile                   : Advanced Simple@L5
Format settings, BVOP            : 2
Format settings, QPel            : No
Format settings, GMC             : No warppoints
Format settings, Matrix          : Default (H.263)
Muxing mode                      : Packed bitstream
Codec ID                         : XVID
Codec ID/Hint                    : XviD
Duration                         : 1h 26mn
Bit rate                         : 1 703 Kbps
Width                            : 720 pixels
Height                           : 256 pixels
Display aspect ratio             : 2.813
Frame rate                       : 29.970 fps
Color space                      : YUV
Chroma subsampling               : 4:2:0
Bit depth                        : 8 bits
Scan type                        : Progressive
Compression mode                 : Lossy
Bits/(Pixel*Frame)               : 0.308
Stream size                      : 1.03 GiB (92%)
Writing library                  : XviD 64

Audio
ID                               : 1
Format                           : MPEG Audio
Format version                   : Version 1
Format profile                   : Layer 3
Codec ID                         : 55
Codec ID/Hint                    : MP3
Duration                         : 1h 26mn
Bit rate mode                    : Constant
Bit rate                         : 128 Kbps
Channel(s)                       : 2 channels
Sampling rate                    : 44.1 KHz
Compression mode                 : Lossy
Stream size                      : 79.2 MiB (7%)
Alignment                        : Split accross interleaves
Interleave, duration             : 33 ms (1.00 video frame)
Interleave, preload duration     : 500 ms







 
http://www.imdb.com/title/tt1622979/





[IMG]http://leetleech.org/images/89524873606771859129.png[/IMG]


Users: (683 votes) 42 reviews | Critics: 3 reviews Metascore: 51/100 (based on 21 reviews from Metacritic.com)


Survivors of a suspension-bridge collapse learn there's no way you can cheat Death.

Director: Steven Quale
Writers: Eric Heisserer, Jeffrey Reddick (characters)
Stars: Nicholas D'Agosto, Emma Bell and Arlen Escarpeta








 
http://www.leetleech.org/images/41271024971970364343.png
 
http://www.leetleech.org/images/71580265272620052991.png
 
http://www.leetleech.org/images/08921322269340077308.png
 
http://www.leetleech.org/images/68474158901769209908.png






Source Used

 
VIDEO: .....IMAGiNE............... Thanks 
AUDIO: ....IMAGiNE             ..... Thanks 




Not a great deal of filters vid was already good just my little take on it 


The vid has a crop to the top now imo i would take this anyday of the week over the other source out 


Sample included

Enjoy





Greetz to IMAGiNE,Flawl3ss,DiLLoN,BDK,NOiR,TOXiC,THC,Ez,Rx,Boobyblue,TaRiQ786







